<svg xmlns="http://www.w3.org/2000/svg" viewBox="0 0 160 40" fill="none" role="img" aria-label="ReLife AI logo">
  <defs>
    <linearGradient id="logoGrad" x1="0" y1="0" x2="1" y2="1">
      <stop offset="0%" stop-color="#1DB954"/>
      <stop offset="100%" stop-color="#0EA5E9"/>
    </linearGradient>
    <linearGradient id="markGrad" x1="0" y1="0" x2="1" y2="1">
      <stop offset="0%" stop-color="#1DB954"/>
      <stop offset="100%" stop-color="#0EA5E9"/>
    </linearGradient>
  </defs>
  <!-- Logo mark: rounded square with recycling arrows -->
  <rect x="0" y="4" width="32" height="32" rx="9" fill="url(#markGrad)"/>
  <!-- Recycling arrow path (simplified circular arrows) -->
  <path d="M16 10 L20 14 L17.5 14 C17.5 18.5 21 21 21 21 L18.5 21 C18.5 21 14.5 18 14.5 14 L12 14 Z" fill="white" opacity="0.9"/>
  <path d="M22 18 L22 22 C22 23.1 21.1 24 20 24 L13.5 24 L15.5 26.5 L13 26.5 L10 23 L13 19.5 L15.5 19.5 L13.5 22 L20 22 L20 18 Z" fill="white" opacity="0.9"/>
  <!-- Wordmark -->
  <text x="40" y="26" font-family="'Sora', 'Inter', system-ui, sans-serif" font-size="18" font-weight="700" fill="url(#logoGrad)">ReLife AI</text>
</svg>
